ffmpeg version 3.4.8-0ubuntu0.2 Copyright (c) 2000-2020 the FFmpeg developers
  built with gcc 7 (Ubuntu 7.5.0-3ubuntu1~18.04)
  configuration: --prefix=/usr --extra-version=0ubuntu0.2 --toolchain=hardened --libdir=/usr/lib/x86_64-linux-gnu --incdir=/usr/include/x86_64-linux-gnu --enable-gpl --disable-stripping --enable-avresample --enable-avisynth --enable-gnutls --enable-ladspa --enable-libass --enable-libbluray --enable-libbs2b --enable-libcaca --enable-libcdio --enable-libflite --enable-libfontconfig --enable-libfreetype --enable-libfribidi --enable-libgme --enable-libgsm --enable-libmp3lame --enable-libmysofa --enable-libopenjpeg --enable-libopenmpt --enable-libopus --enable-libpulse --enable-librubberband --enable-librsvg --enable-libshine --enable-libsnappy --enable-libsoxr --enable-libspeex --enable-libssh --enable-libtheora --enable-libtwolame --enable-libvorbis --enable-libvpx --enable-libwavpack --enable-libwebp --enable-libx265 --enable-libxml2 --enable-libxvid --enable-libzmq --enable-libzvbi --enable-omx --enable-openal --enable-opengl --enable-sdl2 --enable-libdc1394 --enable-libdrm --enable-libiec61883 --enable-chromaprint --enable-frei0r --enable-libopencv --enable-libx264 --enable-shared
  libavutil      55. 78.100 / 55. 78.100
  libavcodec     57.107.100 / 57.107.100
  libavformat    57. 83.100 / 57. 83.100
  libavdevice    57. 10.100 / 57. 10.100
  libavfilter     6.107.100 /  6.107.100
  libavresample   3.  7.  0 /  3.  7.  0
  libswscale      4.  8.100 /  4.  8.100
  libswresample   2.  9.100 /  2.  9.100
  libpostproc    54.  7.100 / 54.  7.100
[rawvideo @ 0x55e4e6768a20] Estimating duration from bitrate, this may be inaccurate
Input #0, rawvideo, from '../../SVC-Encoder-20220109T061506Z-001/SVC-Encoder/Dataset/RollerCoaster/ERP_8x8/tile_yuv/Tile_38_480x240.yuv':
  Duration: 00:00:10.00, start: 0.000000, bitrate: 41472 kb/s
    Stream #0:0: Video: rawvideo (I420 / 0x30323449), yuv420p, 480x240, 41472 kb/s, 30 tbr, 30 tbn, 30 tbc
Stream mapping:
  Stream #0:0 -> #0:0 (rawvideo (native) -> h264 (libx264))
Press [q] to stop, [?] for help
[libx264 @ 0x55e4e6775c60] using cpu capabilities: MMX2 SSE2Fast LZCNT SSSE3 SSE4.2 AVX
[libx264 @ 0x55e4e6775c60] profile High, level 2.1
Output #0, rawvideo, to 'RollerCoaster_Tile_38_480x240_x264_QP_20.h264':
  Metadata:
    encoder         : Lavf57.83.100
    Stream #0:0: Video: h264 (libx264), yuv420p, 480x240, q=-1--1, 30 fps, 30 tbn, 30 tbc
    Metadata:
      encoder         : Lavc57.107.100 libx264
    Side data:
      cpb: bitrate max/min/avg: 0/0/0 buffer size: 0 vbv_delay: -1
frame=  121 fps=0.0 q=26.0 PSNR=Y:nan U:nan V:nan *:nan size=     193kB time=00:00:02.60 bitrate= 606.7kbits/s speed=5.17x    frame=  223 fps=222 q=26.0 PSNR=Y:nan U:nan V:nan *:nan size=     256kB time=00:00:06.00 bitrate= 349.5kbits/s speed=5.98x    frame=  300 fps=200 q=26.0 LPSNR=Y:inf U:inf V:inf *:inf size=     637kB time=00:00:09.93 bitrate= 525.6kbits/s speed=6.63x    
video:637kB audio:0kB subtitle:0kB other streams:0kB global headers:0kB muxing overhead: 0.000000%
[libx264 @ 0x55e4e6775c60] frame I:2     Avg QP:18.31  size: 24978  PSNR Mean Y:46.39 U:50.79 V:52.79 Avg:47.54 Global:47.54
[libx264 @ 0x55e4e6775c60] frame P:76    Avg QP:19.77  size:  6312  PSNR Mean Y:43.54 U:49.69 V:51.23 Avg:44.87 Global:44.79
[libx264 @ 0x55e4e6775c60] frame B:222   Avg QP:25.43  size:   554  PSNR Mean Y:42.86 U:49.47 V:51.19 Avg:44.23 Global:44.17
[libx264 @ 0x55e4e6775c60] consecutive B-frames:  1.0%  0.7%  1.0% 97.3%
[libx264 @ 0x55e4e6775c60] mb I  I16..4:  0.0% 85.7% 14.3%
[libx264 @ 0x55e4e6775c60] mb P  I16..4:  0.0%  0.4%  0.8%  P16..4: 38.6% 30.8% 24.6%  0.0%  0.0%    skip: 4.7%
[libx264 @ 0x55e4e6775c60] mb B  I16..4:  0.0%  0.0%  0.0%  B16..8: 52.6%  5.1%  0.8%  direct: 0.3%  skip:41.2%  L0:39.8% L1:49.8% BI:10.4%
[libx264 @ 0x55e4e6775c60] 8x8 transform intra:68.8% inter:64.8%
[libx264 @ 0x55e4e6775c60] coded y,uvDC,uvAC intra: 95.2% 95.2% 62.7% inter: 19.8% 13.1% 0.3%
[libx264 @ 0x55e4e6775c60] i16 v,h,dc,p:  0%  0% 100%  0%
[libx264 @ 0x55e4e6775c60] i8 v,h,dc,ddl,ddr,vr,hd,vl,hu:  7% 14% 16%  8% 10% 13%  9%  7% 16%
[libx264 @ 0x55e4e6775c60] i4 v,h,dc,ddl,ddr,vr,hd,vl,hu: 15%  9% 17%  4% 12% 26%  5%  4%  9%
[libx264 @ 0x55e4e6775c60] i8c dc,h,v,p: 46% 21% 19% 14%
[libx264 @ 0x55e4e6775c60] Weighted P-Frames: Y:1.3% UV:0.0%
[libx264 @ 0x55e4e6775c60] ref P L0: 63.0% 22.3% 12.5%  2.1%  0.0%
[libx264 @ 0x55e4e6775c60] ref B L0: 92.6%  6.9%  0.5%
[libx264 @ 0x55e4e6775c60] ref B L1: 95.8%  4.2%
[libx264 @ 0x55e4e6775c60] PSNR Mean Y:43.053 U:49.534 V:51.212 Avg:44.416 Global:44.339 kb/s:522.10
